<svg width="166" height="42" viewBox="0 0 166 42" fill="none" xmlns="http://www.w3.org/2000/svg">
  <path d="M43.6299 15.0754H60.4421V18.2172H53.8391V35.8441H50.2035V18.2172H43.6299V15.0754ZM59.7153 20.805H62.8277V23.7138H62.8863C62.983 23.3064 63.1721 22.9093 63.4534 22.521C63.7348 22.1327 64.0733 21.7795 64.4718 21.4586C64.869 21.1391 65.31 20.8812 65.7951 20.6878C66.2801 20.4944 66.7739 20.3977 67.278 20.3977C67.6663 20.3977 67.933 20.4079 68.0781 20.427C68.2232 20.446 68.3741 20.4665 68.5294 20.4856V23.6845C68.2965 23.6464 68.0591 23.6112 67.8173 23.5819C67.574 23.5526 67.3366 23.5379 67.1051 23.5379C66.5424 23.5379 66.0149 23.6493 65.5196 23.8721C65.0257 24.0948 64.5935 24.4245 64.2257 24.8612C63.8564 25.2979 63.5662 25.8356 63.3523 26.476C63.1383 27.1164 63.0328 27.8535 63.0328 28.6873V35.8427H59.7167V20.805H59.7153ZM83.7458 35.8427H80.4883V33.7486H80.4297C80.0223 34.5048 79.4157 35.1114 78.6112 35.5672C77.8067 36.0229 76.9876 36.2515 76.1538 36.2515C74.1755 36.2515 72.7453 35.7621 71.8632 34.7832C70.981 33.8043 70.5399 32.3258 70.5399 30.3475V20.8065H73.8561V30.0266C73.8561 31.3454 74.1081 32.2759 74.6122 32.8196C75.1163 33.3633 75.8241 33.6343 76.7355 33.6343C77.433 33.6343 78.0148 33.5274 78.4808 33.3149C78.9468 33.1024 79.3248 32.8152 79.615 32.4562C79.9066 32.0972 80.1147 31.6664 80.2407 31.1623C80.3667 30.6582 80.4297 30.1145 80.4297 29.5328V20.8065H83.7458V35.8441V35.8427ZM89.389 31.0143C89.4857 31.9843 89.855 32.6628 90.4939 33.0511C91.1342 33.4395 91.8992 33.6329 92.7916 33.6329C93.1022 33.6329 93.4554 33.6094 93.854 33.5596C94.2511 33.5113 94.6248 33.4189 94.9735 33.2827C95.3223 33.1478 95.608 32.9486 95.8322 32.6863C96.055 32.424 96.1561 32.0811 96.137 31.6532C96.118 31.2267 95.9626 30.878 95.671 30.6054C95.3794 30.3343 95.0057 30.116 94.5515 29.9504C94.0958 29.7863 93.577 29.6456 92.9953 29.5284C92.4135 29.4126 91.8215 29.2866 91.2207 29.1503C90.5994 29.0155 90.003 28.8499 89.4315 28.655C88.86 28.4616 88.3456 28.1993 87.8899 27.8696C87.4342 27.5399 87.0708 27.1178 86.7997 26.605C86.5286 26.0921 86.3923 25.4561 86.3923 24.7C86.3923 23.8852 86.5916 23.2024 86.9887 22.6499C87.3858 22.0975 87.8899 21.652 88.501 21.3121C89.112 20.9736 89.7905 20.7347 90.5364 20.5999C91.2822 20.4651 91.9959 20.3962 92.6743 20.3962C93.4495 20.3962 94.191 20.4783 94.9002 20.6438C95.608 20.8094 96.2484 21.0761 96.8199 21.4439C97.3914 21.8132 97.8676 22.2924 98.2457 22.8844C98.6237 23.4764 98.8611 24.1886 98.9579 25.0224H95.4966C95.3413 24.2281 94.9779 23.6947 94.4064 23.4222C93.8335 23.1511 93.1799 23.0148 92.4428 23.0148C92.2098 23.0148 91.9343 23.0339 91.6134 23.0734C91.294 23.113 90.9921 23.1848 90.7122 23.2918C90.4309 23.3987 90.1935 23.5541 90 23.7578C89.8066 23.9614 89.7084 24.2281 89.7084 24.5578C89.7084 24.9652 89.8491 25.2949 90.1305 25.547C90.4118 25.799 90.7796 26.0071 91.2353 26.1727C91.6911 26.3383 92.2098 26.4775 92.7916 26.5947C93.3733 26.7105 93.9741 26.838 94.5954 26.9728C95.1962 27.1091 95.7883 27.2732 96.37 27.4666C96.9518 27.66 97.4705 27.9223 97.9262 28.252C98.382 28.5818 98.7498 28.9994 99.0311 29.5035C99.3125 30.0076 99.4531 30.6289 99.4531 31.3645C99.4531 32.2569 99.2495 33.013 98.8421 33.6329C98.4347 34.2542 97.9057 34.7583 97.2566 35.1451C96.6074 35.5335 95.885 35.8148 95.0893 35.9892C94.2936 36.1636 93.5081 36.2515 92.733 36.2515C91.7819 36.2515 90.9056 36.1445 90.1012 35.932C89.2967 35.7181 88.5977 35.3943 88.0071 34.9576C87.4151 34.5209 86.9506 33.9787 86.6106 33.3281C86.2707 32.6789 86.0919 31.9081 86.0729 31.0157H89.389V31.0143ZM100.325 20.805H102.826V16.2961H106.143V20.805H109.139V23.2771H106.143V31.3059C106.143 31.6546 106.157 31.9565 106.187 32.2071C106.216 32.4591 106.283 32.6731 106.39 32.8474C106.497 33.0218 106.657 33.1522 106.871 33.2402C107.083 33.3281 107.375 33.3706 107.743 33.3706C107.976 33.3706 108.209 33.3662 108.44 33.3559C108.673 33.3457 108.906 33.312 109.138 33.2548V35.8148C108.769 35.8529 108.411 35.8925 108.062 35.9306C107.713 35.9687 107.354 35.9892 106.987 35.9892C106.113 35.9892 105.411 35.9071 104.878 35.7415C104.345 35.5774 103.927 35.3342 103.627 35.0147C103.326 34.6953 103.122 34.2923 103.015 33.8073C102.908 33.3222 102.845 32.7698 102.826 32.1499V23.2786H100.325V20.8065V20.805ZM111.465 20.805H114.607V22.8404H114.665C115.131 21.9685 115.78 21.3428 116.614 20.9648C117.448 20.5867 118.349 20.3977 119.319 20.3977C120.502 20.3977 121.535 20.6057 122.417 21.0234C123.299 21.441 124.032 22.0125 124.614 22.7393C125.195 23.4661 125.632 24.3146 125.922 25.2847C126.212 26.2547 126.359 27.2922 126.359 28.3971C126.359 29.4053 126.228 30.3856 125.966 31.3352C125.704 32.2862 125.307 33.1244 124.773 33.8512C124.24 34.578 123.566 35.1598 122.751 35.5965C121.936 36.0332 120.977 36.2515 119.872 36.2515C119.387 36.2515 118.902 36.2075 118.418 36.1211C117.933 36.0332 117.467 35.8925 117.021 35.6991C116.575 35.5056 116.163 35.258 115.785 34.9576C115.407 34.6572 115.092 34.3026 114.84 33.8952H114.781V41.3993H111.465V20.805ZM123.041 28.3385C123.041 27.66 122.953 27.0006 122.779 26.3603C122.605 25.7199 122.342 25.1528 121.993 24.659C121.645 24.1651 121.208 23.768 120.685 23.4661C120.162 23.1657 119.559 23.0148 118.881 23.0148C117.485 23.0148 116.432 23.4998 115.725 24.4685C115.017 25.4385 114.662 26.7281 114.662 28.337C114.662 29.0932 114.755 29.7965 114.939 30.4457C115.124 31.0949 115.399 31.6532 115.769 32.1177C116.136 32.5837 116.577 32.9515 117.092 33.2226C117.605 33.4951 118.201 33.6299 118.881 33.6299C119.637 33.6299 120.278 33.4746 120.801 33.164C121.324 32.8533 121.756 32.4518 122.095 31.9565C122.433 31.4612 122.676 30.9 122.821 30.2699C122.966 29.6397 123.04 28.995 123.04 28.3356L123.041 28.3385ZM128.888 15.074H132.204V18.2157H128.888V15.074ZM128.888 20.8036H132.204V35.8412H128.888V20.8036ZM135.167 15.074H138.483V35.8441H135.167V15.0754V15.074ZM148.634 36.25C147.431 36.25 146.36 36.0507 145.42 35.6536C144.48 35.2565 143.685 34.7085 143.035 34.0109C142.384 33.3134 141.89 32.4796 141.552 31.5096C141.212 30.5395 141.043 29.4727 141.043 28.3107C141.043 27.1486 141.213 26.1097 141.552 25.1396C141.89 24.1695 142.386 23.3357 143.035 22.6382C143.684 21.9407 144.48 21.3926 145.42 20.9955C146.361 20.5984 147.432 20.3991 148.634 20.3991C149.835 20.3991 150.907 20.5984 151.847 20.9955C152.788 21.3926 153.582 21.9407 154.233 22.6382C154.882 23.3357 155.378 24.171 155.716 25.1396C156.055 26.1097 156.224 27.1662 156.224 28.3107C156.224 29.4551 156.055 30.5409 155.716 31.5096C155.376 32.4796 154.882 33.3134 154.233 34.0109C153.582 34.7085 152.788 35.2565 151.847 35.6536C150.907 36.0507 149.835 36.25 148.634 36.25ZM148.634 33.6314C149.371 33.6314 150.011 33.4761 150.554 33.1654C151.096 32.8548 151.543 32.4489 151.891 31.9433C152.24 31.4392 152.497 30.8721 152.662 30.242C152.826 29.6119 152.91 28.9671 152.91 28.3077C152.91 27.6483 152.828 27.0285 152.662 26.3881C152.498 25.7477 152.24 25.1806 151.891 24.6868C151.543 24.193 151.096 23.79 150.554 23.4793C150.01 23.1687 149.371 23.0133 148.634 23.0133C147.897 23.0133 147.256 23.1687 146.714 23.4793C146.171 23.79 145.725 24.1915 145.376 24.6868C145.028 25.1821 144.77 25.7492 144.606 26.3881C144.44 27.0285 144.358 27.6674 144.358 28.3077C144.358 28.9481 144.44 29.6119 144.606 30.242C144.77 30.8721 145.028 31.4392 145.376 31.9433C145.725 32.4474 146.171 32.8548 146.714 33.1654C147.256 33.4761 147.897 33.6314 148.634 33.6314ZM157.186 20.8036H159.687V16.2946H163.003V20.8036H166V23.2756H163.003V31.3044C163.003 31.6532 163.018 31.955 163.047 32.2056C163.077 32.4577 163.144 32.6716 163.251 32.846C163.358 33.0204 163.518 33.1508 163.732 33.2387C163.944 33.3266 164.236 33.3691 164.603 33.3691C164.836 33.3691 165.069 33.3647 165.301 33.3545C165.534 33.3442 165.767 33.3105 165.999 33.2534V35.8134C165.629 35.8514 165.272 35.891 164.923 35.9291C164.574 35.9672 164.215 35.9877 163.847 35.9877C162.974 35.9877 162.272 35.9057 161.739 35.7401C161.205 35.576 160.788 35.3327 160.487 35.0133C160.187 34.6938 159.983 34.2908 159.876 33.8058C159.769 33.3208 159.706 32.7683 159.687 32.1485V23.2771H157.186V20.805V20.8036Z" fill="#fff"/>
  <path d="M19.8807 29.5167L28.5351 27.2762L32.1634 38.4437L19.8807 29.5182V29.5167ZM39.7584 15.0755L24.5713 15.0726L19.8792 0.629883L15.1871 15.0711L0 15.0682L12.2871 23.9981L7.59501 38.4423L19.8807 29.5167L27.4713 24.0011L39.7584 15.074V15.0755Z" fill="#fff"/>
</svg>
