<svg width="188" height="32" viewBox="0 0 188 32" fill="none" xmlns="http://www.w3.org/2000/svg">
<path fill-rule="evenodd" clip-rule="evenodd" d="M13.4085 0H18.5916L18.9932 2.81131C20.5209 3.15656 21.9506 3.76046 23.2337 4.57456L25.4968 2.87724L29.1618 6.54225L27.4567 8.81576C28.255 10.0862 28.8479 11.4987 29.1887 13.0068L32 13.4085V18.5915L29.1887 18.9932C28.846 20.5097 28.2484 21.9296 27.4433 23.2055L29.1618 25.4968L25.4968 29.1618L23.2055 27.4433C21.9296 28.2484 20.5097 28.846 18.9932 29.1887L18.5916 32H13.4085L13.0068 29.1887C11.4987 28.8479 10.0861 28.255 8.81575 27.4567L6.54225 29.1618L2.87724 25.4968L4.57455 23.2337C3.76045 21.9506 3.15656 20.5209 2.81131 18.9932L0 18.5915V13.4085L2.81131 13.0068C3.15466 11.4875 3.75382 10.0652 4.56114 8.78745L2.87724 6.54225L6.54225 2.87724L8.78745 4.56115C10.0652 3.75382 11.4875 3.15466 13.0068 2.81131L13.4085 0Z" fill="#F04E23"/>
<path fill-rule="evenodd" clip-rule="evenodd" d="M18.9292 20.1558C20.087 19.342 20.8451 17.986 20.8451 16.4507C20.8451 13.9615 18.8524 11.9437 16.3944 11.9437C13.9733 11.9437 12.0037 13.9013 11.945 16.3388L11.9437 16.338V16.4507V26.7606C11.9437 27.6629 12.8517 28.3944 13.9718 28.3944C15.092 28.3944 16 27.6629 16 26.7606C16 26.6992 15.9996 26.6352 15.9992 26.5686C15.9913 25.2254 15.9773 22.8396 18.9292 20.1558Z" fill="#C94C2B"/>
<path fill-rule="evenodd" clip-rule="evenodd" d="M18.5623 17.2766L14.9859 19.2661L18.5736 25.7156L18.601 25.7649L18.6016 25.7645C19.1742 26.7336 20.4037 27.0829 21.3751 26.5425C22.3465 26.0022 22.6981 24.7733 22.1767 23.7758L22.1774 23.7754L22.15 23.7262L18.5623 17.2766Z" fill="white"/>
<path fill-rule="evenodd" clip-rule="evenodd" d="M19.7499 19.4116C19.508 19.6925 19.2323 19.9428 18.9292 20.1558C17.9628 21.0345 17.3142 21.8812 16.8793 22.6698L14.9859 19.2661L18.5623 17.2766L19.7499 19.4116Z" fill="#CECECE"/>
<path fill-rule="evenodd" clip-rule="evenodd" d="M18.1404 18.5784C19.2982 17.7646 20.0563 16.4086 20.0563 14.8732C20.0563 12.3841 18.0637 10.3662 15.6056 10.3662C13.1845 10.3662 11.2149 12.3238 11.1563 14.7613L11.1549 14.7606V14.8732V25.1831C11.1549 26.0854 12.0629 26.8169 13.1831 26.8169C14.3032 26.8169 15.2112 26.0854 15.2112 25.1831C15.2112 25.1217 15.2109 25.0577 15.2105 24.9912C15.2026 23.6479 15.1885 21.2621 18.1404 18.5784Z" fill="white"/>
<circle cx="15.6056" cy="14.8169" r="1.1831" fill="#F04E23"/>
<path fill-rule="evenodd" clip-rule="evenodd" d="M10.2535 23.4797C8.05907 21.7579 6.64789 19.0729 6.64789 16.0563C6.64789 10.8602 10.835 6.64789 16 6.64789C21.165 6.64789 25.3521 10.8602 25.3521 16.0563C25.3521 18.6821 24.2829 21.0565 22.5587 22.7632L22.0291 21.5953C23.392 20.1274 24.2254 18.161 24.2254 16C24.2254 11.4573 20.5427 7.77465 16 7.77465C11.4573 7.77465 7.77465 11.4573 7.77465 16C7.77465 18.3066 8.72411 20.3915 10.2535 21.8851V23.4797Z" fill="white"/>
<path d="M44.8849 12.853C44.8849 13.1548 44.8021 13.3857 44.6364 13.5455C44.4766 13.7053 44.2487 13.7852 43.9528 13.7852H41.8487V16.9368C41.8487 17.3274 41.9493 17.6085 42.1506 17.7802C42.3577 17.9518 42.6892 18.0376 43.1449 18.0376C43.281 18.0376 43.4467 18.0258 43.642 18.0021C43.8433 17.9785 43.9824 17.9666 44.0593 17.9666C44.5979 17.9666 44.8701 18.2034 44.8761 18.6768V19.2983C44.8761 19.8546 44.6245 20.189 44.1214 20.3015C43.5118 20.4435 42.9407 20.5205 42.408 20.5323C41.8753 20.5501 41.3723 20.4938 40.8988 20.3636C40.4253 20.2334 40.0199 20.0322 39.6825 19.7599C39.3511 19.4877 39.0877 19.1148 38.8924 18.6413C38.6971 18.1619 38.5994 17.5938 38.5994 16.9368V10.2518C38.5994 9.94993 38.6764 9.72207 38.8303 9.56818C38.9901 9.40838 39.2238 9.32848 39.5316 9.32848H40.9165C41.2125 9.32848 41.4403 9.40838 41.6001 9.56818C41.7659 9.72207 41.8487 9.94993 41.8487 10.2518V11.3704H43.9528C44.2487 11.3704 44.4766 11.4532 44.6364 11.619C44.8021 11.7788 44.8849 12.0066 44.8849 12.3026V12.853Z" fill="white"/>
<path d="M50.8686 11.2905C51.1882 11.2846 51.4338 11.3615 51.6055 11.5213C51.7771 11.6752 51.8629 11.9031 51.8629 12.2049V13.0217C51.8629 13.6254 51.5226 13.9361 50.842 13.9538C50.3211 13.9657 49.9453 14.0012 49.7145 14.0604C49.4896 14.1136 49.3505 14.1876 49.2972 14.2823C49.244 14.3711 49.2173 14.5309 49.2173 14.7617V19.4403C49.2173 19.7422 49.1345 19.973 48.9687 20.1328C48.8089 20.2867 48.5811 20.3636 48.2852 20.3636H46.9002C46.5984 20.3636 46.3675 20.2867 46.2077 20.1328C46.0479 19.973 45.968 19.7422 45.968 19.4403V14.2646C45.968 13.8562 45.9917 13.5129 46.0391 13.2347C46.0923 12.9566 46.19 12.705 46.332 12.4801C46.48 12.2493 46.6635 12.0658 46.8825 11.9297C47.1074 11.7936 47.4092 11.6782 47.788 11.5835C48.1668 11.4828 48.5988 11.4118 49.0842 11.3704C49.5695 11.329 50.1643 11.3023 50.8686 11.2905Z" fill="white"/>
<path d="M57.0387 11.2106C57.7075 11.2106 58.3112 11.2816 58.8498 11.4237C59.3884 11.5598 59.8619 11.7699 60.2702 12.054C60.6786 12.3322 60.9953 12.708 61.2202 13.1815C61.4451 13.649 61.5575 14.1906 61.5575 14.8061V17.718C61.5575 18.6887 61.3267 19.3723 60.8651 19.7688C60.4034 20.1654 59.6725 20.3636 58.6722 20.3636H56.4439C55.8284 20.3636 55.3016 20.3222 54.8636 20.2393C54.4257 20.1506 54.035 20.0085 53.6918 19.8132C53.3485 19.612 53.091 19.3279 52.9194 18.9609C52.7477 18.594 52.6619 18.1442 52.6619 17.6115C52.6619 17.0788 52.7477 16.629 52.9194 16.2621C53.091 15.8951 53.3485 15.611 53.6918 15.4098C54.041 15.2086 54.4345 15.0665 54.8725 14.9837C55.3105 14.8949 55.8343 14.8505 56.4439 14.8505H58.397V14.8061C58.397 13.9775 57.7667 13.5632 56.506 13.5632C55.9083 13.5632 55.1596 13.649 54.2599 13.8207C53.9403 13.8858 53.6888 13.8473 53.5053 13.7053C53.3278 13.5573 53.239 13.3235 53.239 13.0039V12.56C53.239 11.9859 53.5615 11.6367 54.2067 11.5124C55.272 11.3112 56.216 11.2106 57.0387 11.2106ZM57.6246 18.4105C57.9383 18.4105 58.1455 18.3484 58.2461 18.2241C58.3467 18.0998 58.397 17.8808 58.397 17.5671V16.8125H56.6925C56.2308 16.8125 55.926 16.8717 55.778 16.9901C55.6301 17.1025 55.5561 17.3097 55.5561 17.6115C55.5561 17.9134 55.6301 18.1235 55.778 18.2418C55.926 18.3543 56.2279 18.4105 56.6836 18.4105H57.6246Z" fill="white"/>
<path d="M69.1214 8.56499C69.1214 8.26314 69.1984 8.03232 69.3523 7.87252C69.5121 7.71272 69.7429 7.63282 70.0447 7.63282H71.3764C71.6783 7.63282 71.9061 7.71272 72.06 7.87252C72.2198 8.03232 72.2997 8.26314 72.2997 8.56499V17.5405C72.2997 18.6177 71.9712 19.3841 71.3143 19.8398C70.6573 20.2956 69.6334 20.5234 68.2425 20.5234C67.3962 20.5234 66.6593 20.4465 66.032 20.2926C65.4046 20.1328 64.8571 19.8754 64.3896 19.5202C63.9279 19.1651 63.5787 18.6857 63.342 18.082C63.1052 17.4724 62.9869 16.7356 62.9869 15.8715C62.9869 15.0014 63.1052 14.2616 63.342 13.652C63.5787 13.0424 63.9279 12.563 64.3896 12.2138C64.8571 11.8587 65.4016 11.6042 66.0231 11.4503C66.6504 11.2905 67.3903 11.2106 68.2425 11.2106C68.5266 11.2106 68.8196 11.2195 69.1214 11.2372V8.56499ZM68.0206 18.0199C68.4941 18.0199 68.7959 17.9518 68.9261 17.8157C69.0563 17.6796 69.1214 17.4192 69.1214 17.0344V13.794C68.719 13.7408 68.3668 13.7112 68.065 13.7053C67.3607 13.7053 66.8665 13.8651 66.5824 14.1847C66.2983 14.4983 66.1562 15.0576 66.1562 15.8626C66.1562 16.6616 66.2953 17.2209 66.5735 17.5405C66.8517 17.8601 67.334 18.0199 68.0206 18.0199Z" fill="white"/>
<path d="M82.8111 14.8327C82.8111 15.4719 82.6542 15.9366 82.3405 16.2266C82.0269 16.5166 81.4794 16.703 80.6981 16.7859L77.0494 17.1587C77.2032 17.5553 77.4489 17.8305 77.7862 17.9844C78.1295 18.1383 78.5852 18.2152 79.1534 18.2152C79.7038 18.2152 80.3756 18.1294 81.1687 17.9577C81.4883 17.8867 81.7398 17.9193 81.9233 18.0554C82.1127 18.1915 82.2074 18.4253 82.2074 18.7568V19.0941C82.2074 19.6505 81.944 19.9937 81.4173 20.1239C80.3638 20.3903 79.3842 20.5234 78.4787 20.5234C76.999 20.5234 75.8331 20.1358 74.9808 19.3604C74.1285 18.5792 73.7024 17.4162 73.7024 15.8715C73.7024 14.3741 74.1078 13.2259 74.9187 12.4268C75.7354 11.6219 76.9399 11.2195 78.532 11.2195C79.8991 11.2195 80.9526 11.5213 81.6925 12.125C82.4382 12.7287 82.8111 13.6313 82.8111 14.8327ZM79.4109 14.9482C79.6062 14.9304 79.7364 14.8919 79.8015 14.8327C79.8666 14.7736 79.8991 14.6729 79.8991 14.5309C79.8991 14.1166 79.7867 13.8088 79.5618 13.6076C79.3428 13.4064 78.9995 13.3058 78.532 13.3058C78.0111 13.3058 77.6205 13.4478 77.3601 13.7319C77.0997 14.016 76.9428 14.5013 76.8896 15.1879L79.4109 14.9482Z" fill="white"/>
<path d="M94.592 11.2106C95.2548 11.2106 95.8319 11.2816 96.3231 11.4237C96.8203 11.5657 97.2583 11.7965 97.6371 12.1161C98.0159 12.4298 98.3029 12.8619 98.4982 13.4123C98.6995 13.9568 98.8001 14.6138 98.8001 15.3832V19.4403C98.8001 19.7422 98.7202 19.973 98.5604 20.1328C98.4006 20.2867 98.1697 20.3636 97.8679 20.3636H96.6339C96.332 20.3636 96.1012 20.2867 95.9414 20.1328C95.7875 19.973 95.7106 19.7422 95.7106 19.4403V15.2411C95.7106 14.7085 95.5981 14.3208 95.3732 14.0781C95.1542 13.8355 94.805 13.7141 94.3256 13.7141C93.8522 13.7141 93.5148 13.8355 93.3136 14.0781C93.1123 14.3149 93.0117 14.7025 93.0117 15.2411V19.4403C93.0117 19.7422 92.9318 19.973 92.772 20.1328C92.6181 20.2867 92.3903 20.3636 92.0884 20.3636H90.8722C90.5703 20.3636 90.3395 20.2867 90.1797 20.1328C90.0199 19.973 89.94 19.7422 89.94 19.4403V15.2411C89.94 14.7025 89.8394 14.3149 89.6381 14.0781C89.4428 13.8355 89.1084 13.7141 88.6349 13.7141C88.1496 13.7141 87.7975 13.8355 87.5785 14.0781C87.3595 14.3208 87.25 14.7085 87.25 15.2411V19.4403C87.25 19.7422 87.1701 19.973 87.0103 20.1328C86.8564 20.2867 86.6285 20.3636 86.3267 20.3636H85.0927C84.7908 20.3636 84.56 20.2867 84.4002 20.1328C84.2404 19.973 84.1605 19.7422 84.1605 19.4403V15.3832C84.1605 14.6138 84.2582 13.9568 84.4535 13.4123C84.6547 12.8619 84.9447 12.4298 85.3235 12.1161C85.7023 11.7965 86.1403 11.5657 86.6374 11.4237C87.1346 11.2816 87.7116 11.2106 88.3686 11.2106C89.8542 11.2106 90.8899 11.5805 91.4758 12.3203C92.0559 11.5805 93.0946 11.2106 94.592 11.2106Z" fill="white"/>
<path d="M104.5 11.2106C105.168 11.2106 105.772 11.2816 106.311 11.4237C106.849 11.5598 107.323 11.7699 107.731 12.054C108.14 12.3322 108.456 12.708 108.681 13.1815C108.906 13.649 109.018 14.1906 109.018 14.8061V17.718C109.018 18.6887 108.788 19.3723 108.326 19.7688C107.864 20.1654 107.133 20.3636 106.133 20.3636H103.905C103.289 20.3636 102.763 20.3222 102.325 20.2393C101.887 20.1506 101.496 20.0085 101.153 19.8132C100.809 19.612 100.552 19.3279 100.38 18.9609C100.209 18.594 100.123 18.1442 100.123 17.6115C100.123 17.0788 100.209 16.629 100.38 16.2621C100.552 15.8951 100.809 15.611 101.153 15.4098C101.502 15.2086 101.895 15.0665 102.333 14.9837C102.771 14.8949 103.295 14.8505 103.905 14.8505H105.858V14.8061C105.858 13.9775 105.228 13.5632 103.967 13.5632C103.369 13.5632 102.62 13.649 101.721 13.8207C101.401 13.8858 101.15 13.8473 100.966 13.7053C100.789 13.5573 100.7 13.3235 100.7 13.0039V12.56C100.7 11.9859 101.022 11.6367 101.668 11.5124C102.733 11.3112 103.677 11.2106 104.5 11.2106ZM105.086 18.4105C105.399 18.4105 105.606 18.3484 105.707 18.2241C105.808 18.0998 105.858 17.8808 105.858 17.5671V16.8125H104.153C103.692 16.8125 103.387 16.8717 103.239 16.9901C103.091 17.1025 103.017 17.3097 103.017 17.6115C103.017 17.9134 103.091 18.1235 103.239 18.2418C103.387 18.3543 103.689 18.4105 104.145 18.4105H105.086Z" fill="white"/>
<path d="M115.499 11.2905C115.819 11.2846 116.065 11.3615 116.236 11.5213C116.408 11.6752 116.494 11.9031 116.494 12.2049V13.0217C116.494 13.6254 116.153 13.9361 115.473 13.9538C114.952 13.9657 114.576 14.0012 114.345 14.0604C114.12 14.1136 113.981 14.1876 113.928 14.2823C113.875 14.3711 113.848 14.5309 113.848 14.7617V19.4403C113.848 19.7422 113.765 19.973 113.599 20.1328C113.44 20.2867 113.212 20.3636 112.916 20.3636H111.531C111.229 20.3636 110.998 20.2867 110.838 20.1328C110.679 19.973 110.599 19.7422 110.599 19.4403V14.2646C110.599 13.8562 110.622 13.5129 110.67 13.2347C110.723 12.9566 110.821 12.705 110.963 12.4801C111.111 12.2493 111.294 12.0658 111.513 11.9297C111.738 11.7936 112.04 11.6782 112.419 11.5835C112.797 11.4828 113.23 11.4118 113.715 11.3704C114.2 11.329 114.795 11.3023 115.499 11.2905Z" fill="white"/>
<path d="M126.774 19.3604C126.969 19.6386 126.999 19.8754 126.863 20.0707C126.727 20.266 126.463 20.3636 126.073 20.3636H124.679C124.134 20.3636 123.744 20.1802 123.507 19.8132L120.773 16.0934V19.4403C120.773 19.7422 120.693 19.973 120.533 20.1328C120.379 20.2867 120.151 20.3636 119.849 20.3636H118.527C118.225 20.3636 117.994 20.2867 117.834 20.1328C117.674 19.973 117.594 19.7422 117.594 19.4403V8.56499C117.594 8.26314 117.671 8.03232 117.825 7.87252C117.985 7.71272 118.219 7.63282 118.527 7.63282H119.849C120.151 7.63282 120.379 7.71272 120.533 7.87252C120.693 8.03232 120.773 8.26314 120.773 8.56499V15.1701L123.498 11.9031C123.729 11.5539 124.117 11.3763 124.661 11.3704H126.002C126.398 11.3704 126.662 11.471 126.792 11.6722C126.928 11.8675 126.89 12.1013 126.676 12.3736L123.836 15.5962L126.774 19.3604Z" fill="white"/>
<path d="M139.912 14.8327C139.912 15.4719 139.755 15.9366 139.441 16.2266C139.128 16.5166 138.58 16.703 137.799 16.7859L134.15 17.1587C134.304 17.5553 134.55 17.8305 134.887 17.9844C135.23 18.1383 135.686 18.2152 136.254 18.2152C136.805 18.2152 137.476 18.1294 138.27 17.9577C138.589 17.8867 138.841 17.9193 139.024 18.0554C139.214 18.1915 139.308 18.4253 139.308 18.7568V19.0941C139.308 19.6505 139.045 19.9937 138.518 20.1239C137.465 20.3903 136.485 20.5234 135.58 20.5234C134.1 20.5234 132.934 20.1358 132.082 19.3604C131.229 18.5792 130.803 17.4162 130.803 15.8715C130.803 14.3741 131.209 13.2259 132.02 12.4268C132.836 11.6219 134.041 11.2195 135.633 11.2195C137 11.2195 138.054 11.5213 138.793 12.125C139.539 12.7287 139.912 13.6313 139.912 14.8327ZM136.512 14.9482C136.707 14.9304 136.837 14.8919 136.902 14.8327C136.967 14.7736 137 14.6729 137 14.5309C137 14.1166 136.888 13.8088 136.663 13.6076C136.444 13.4064 136.1 13.3058 135.633 13.3058C135.112 13.3058 134.721 13.4478 134.461 13.7319C134.201 14.016 134.044 14.5013 133.99 15.1879L136.512 14.9482Z" fill="white"/>
<path d="M145.767 11.2106C146.548 11.2106 147.217 11.2786 147.773 11.4148C148.336 11.545 148.821 11.7669 149.229 12.0806C149.644 12.3943 149.951 12.8293 150.153 13.3857C150.354 13.942 150.455 14.6226 150.455 15.4276V19.4403C150.455 19.7422 150.375 19.973 150.215 20.1328C150.055 20.2867 149.824 20.3636 149.522 20.3636H148.208C147.907 20.3636 147.676 20.2867 147.516 20.1328C147.356 19.973 147.276 19.7422 147.276 19.4403V15.3565C147.276 14.7351 147.164 14.306 146.939 14.0693C146.714 13.8325 146.323 13.7141 145.767 13.7141C145.217 13.7141 144.826 13.8325 144.595 14.0693C144.37 14.3001 144.258 14.7292 144.258 15.3565V19.4403C144.258 19.7422 144.178 19.973 144.018 20.1328C143.864 20.2867 143.636 20.3636 143.335 20.3636H142.012C141.71 20.3636 141.479 20.2867 141.319 20.1328C141.159 19.973 141.08 19.7422 141.08 19.4403V15.4276C141.08 14.6226 141.18 13.942 141.381 13.3857C141.583 12.8293 141.89 12.3943 142.305 12.0806C142.719 11.7669 143.201 11.545 143.752 11.4148C144.308 11.2786 144.98 11.2106 145.767 11.2106Z" fill="white"/>
<path d="M156.94 11.2106C158.337 11.2106 159.361 11.4384 160.012 11.8942C160.663 12.3499 160.988 13.1193 160.988 14.2024V20.5678C160.988 21.3787 160.784 22.0593 160.376 22.6097C159.973 23.1602 159.438 23.5567 158.769 23.7994C158.106 24.042 157.328 24.1634 156.434 24.1634C155.635 24.1634 154.771 24.0598 153.842 23.8526C153.309 23.7224 153.043 23.3821 153.043 22.8317V22.3789C153.043 22.0593 153.134 21.8285 153.318 21.6864C153.501 21.5444 153.753 21.5059 154.072 21.571C154.818 21.7249 155.449 21.8018 155.963 21.8018C157.2 21.8018 157.819 21.3905 157.819 20.5678V20.4968C157.517 20.5146 157.224 20.5234 156.94 20.5234C156.094 20.5234 155.357 20.4465 154.729 20.2926C154.102 20.1328 153.555 19.8783 153.087 19.5291C152.619 19.174 152.267 18.6946 152.031 18.0909C151.794 17.4813 151.675 16.7444 151.675 15.8803C151.675 15.0103 151.794 14.2705 152.031 13.6609C152.267 13.0513 152.619 12.5689 153.087 12.2138C153.555 11.8587 154.102 11.6042 154.729 11.4503C155.357 11.2905 156.094 11.2106 156.94 11.2106ZM156.762 18.0288C157.064 18.0288 157.416 18.0021 157.819 17.9489V14.7085C157.819 14.3237 157.754 14.0633 157.624 13.9272C157.493 13.7852 157.192 13.7141 156.718 13.7141C156.031 13.7141 155.549 13.8739 155.271 14.1935C154.993 14.5131 154.854 15.0724 154.854 15.8715C154.854 16.6705 154.996 17.2298 155.28 17.5494C155.564 17.869 156.058 18.0288 156.762 18.0288Z" fill="white"/>
<path d="M164.189 10.4116C163.627 10.4116 163.201 10.2695 162.911 9.98544C162.621 9.70135 162.475 9.29889 162.475 8.77806C162.475 8.26314 162.621 7.86364 162.911 7.57955C163.201 7.29546 163.627 7.15341 164.189 7.15341C164.745 7.15341 165.165 7.29546 165.45 7.57955C165.734 7.85772 165.876 8.25722 165.876 8.77806C165.876 9.29889 165.734 9.70135 165.45 9.98544C165.165 10.2695 164.745 10.4116 164.189 10.4116ZM163.488 20.3636C163.186 20.3636 162.955 20.2867 162.795 20.1328C162.641 19.973 162.564 19.7422 162.564 19.4403V12.3026C162.564 12.0066 162.641 11.7788 162.795 11.619C162.955 11.4532 163.186 11.3704 163.488 11.3704H164.873C165.174 11.3704 165.402 11.4532 165.556 11.619C165.716 11.7788 165.796 12.0066 165.796 12.3026V19.4403C165.796 19.7422 165.716 19.973 165.556 20.1328C165.402 20.2867 165.174 20.3636 164.873 20.3636H163.488Z" fill="white"/>
<path d="M172.05 11.2106C172.832 11.2106 173.5 11.2786 174.057 11.4148C174.619 11.545 175.104 11.7669 175.513 12.0806C175.927 12.3943 176.235 12.8293 176.436 13.3857C176.637 13.942 176.738 14.6226 176.738 15.4276V19.4403C176.738 19.7422 176.658 19.973 176.498 20.1328C176.338 20.2867 176.108 20.3636 175.806 20.3636H174.492C174.19 20.3636 173.959 20.2867 173.799 20.1328C173.64 19.973 173.56 19.7422 173.56 19.4403V15.3565C173.56 14.7351 173.447 14.306 173.222 14.0693C172.997 13.8325 172.607 13.7141 172.05 13.7141C171.5 13.7141 171.109 13.8325 170.879 14.0693C170.654 14.3001 170.541 14.7292 170.541 15.3565V19.4403C170.541 19.7422 170.461 19.973 170.301 20.1328C170.148 20.2867 169.92 20.3636 169.618 20.3636H168.295C167.993 20.3636 167.762 20.2867 167.603 20.1328C167.443 19.973 167.363 19.7422 167.363 19.4403V15.4276C167.363 14.6226 167.464 13.942 167.665 13.3857C167.866 12.8293 168.174 12.3943 168.588 12.0806C169.002 11.7669 169.485 11.545 170.035 11.4148C170.591 11.2786 171.263 11.2106 172.05 11.2106Z" fill="white"/>
<path d="M187.067 14.8327C187.067 15.4719 186.911 15.9366 186.597 16.2266C186.283 16.5166 185.736 16.703 184.955 16.7859L181.306 17.1587C181.46 17.5553 181.705 17.8305 182.043 17.9844C182.386 18.1383 182.842 18.2152 183.41 18.2152C183.96 18.2152 184.632 18.1294 185.425 17.9577C185.745 17.8867 185.996 17.9193 186.18 18.0554C186.369 18.1915 186.464 18.4253 186.464 18.7568V19.0941C186.464 19.6505 186.2 19.9937 185.674 20.1239C184.62 20.3903 183.641 20.5234 182.735 20.5234C181.255 20.5234 180.089 20.1358 179.237 19.3604C178.385 18.5792 177.959 17.4162 177.959 15.8715C177.959 14.3741 178.364 13.2259 179.175 12.4268C179.992 11.6219 181.196 11.2195 182.788 11.2195C184.156 11.2195 185.209 11.5213 185.949 12.125C186.695 12.7287 187.067 13.6313 187.067 14.8327ZM183.667 14.9482C183.863 14.9304 183.993 14.8919 184.058 14.8327C184.123 14.7736 184.156 14.6729 184.156 14.5309C184.156 14.1166 184.043 13.8088 183.818 13.6076C183.599 13.4064 183.256 13.3058 182.788 13.3058C182.268 13.3058 181.877 13.4478 181.616 13.7319C181.356 14.016 181.199 14.5013 181.146 15.1879L183.667 14.9482Z" fill="white"/>
</svg>
